<svg id="SvgjsSvg1006" width="1139.000015258789" height="553" xmlns="http://www.w3.org/2000/svg" version="1.1" xmlns:xlink="http://www.w3.org/1999/xlink" xmlns:svgjs="http://svgjs.com/svgjs"><defs id="SvgjsDefs1007"><pattern patternUnits="userSpaceOnUse" id="pattern_mark_0" width="300" height="300"><text x="150" y="100" fill="rgba(229,229,229,0.8)" font-size="18" transform="rotate(-45, 150, 150)" style="dominant-baseline: middle; text-anchor: middle;"></text></pattern><pattern patternUnits="userSpaceOnUse" id="pattern_mark_1" width="300" height="300"><text x="150" y="200" fill="rgba(229,229,229,0.8)" font-size="18" transform="rotate(-45, 150, 150)" style="dominant-baseline: middle; text-anchor: middle;"></text></pattern></defs><rect id="svgbackgroundid" width="1139.000015258789" height="553" fill="#ffffff"></rect><rect id="SvgjsRect1009" width="1139.000015258789" height="553" fill="url(#pattern_mark_0)"></rect><rect id="SvgjsRect1010" width="1139.000015258789" height="553" fill="url(#pattern_mark_1)"></rect><g id="SvgjsG1011" transform="translate(25,25.009728325737797)"><path id="SvgjsPath1012" d="M 0 4Q 0 0 4 0L 352.33333333333337 0Q 356.33333333333337 0 356.33333333333337 4L 356.33333333333337 489Q 356.33333333333337 493 352.33333333333337 493L 4 493Q 0 493 0 489Z" stroke="rgba(33,41,48,1)" stroke-width="1.5" fill-opacity="1" fill="#ffffff"></path><g id="SvgjsG1013"><text id="SvgjsText1014" font-family="微软雅黑" text-anchor="middle" font-size="13px" width="337px" fill="#323232" font-weight="400" align="middle" lineHeight="125%" anchor="middle" family="微软雅黑" size="13px" weight="400" font-style="" opacity="1" y="235.875" transform="rotate(0)"></text></g></g><g id="SvgjsG1015" transform="translate(67.33187134502921,31.811269751556722)"><path id="SvgjsPath1016" d="M 0 0L 258.40058479532166 0L 258.40058479532166 40L 0 40Z" stroke="none" fill="none"></path><g id="SvgjsG1017"><text id="SvgjsText1018" font-family="微软雅黑" text-anchor="middle" font-size="20px" width="259px" fill="#323232" font-weight="400" align="middle" lineHeight="125%" anchor="middle" family="微软雅黑" size="20px" weight="400" font-style="" opacity="1" y="2" transform="rotate(0)"><tspan id="SvgjsTspan1019" dy="25" x="129.5"><tspan id="SvgjsTspan1020" style="">Host1</tspan></tspan></text></g></g><g id="SvgjsG1021" transform="translate(36.33333333333337,112.45417277018225)"><path id="SvgjsPath1022" d="M 0 4Q 0 0 4 0L 83.22222222222211 0Q 87.22222222222211 0 87.22222222222211 4L 87.22222222222211 76.33333333333334Q 87.22222222222211 80.33333333333334 83.22222222222211 80.33333333333334L 4 80.33333333333334Q 0 80.33333333333334 0 76.33333333333334Z" stroke="rgba(33,41,48,1)" stroke-width="1.5" fill-opacity="1" fill="#ffffff"></path><g id="SvgjsG1023"><text id="SvgjsText1024" font-family="微软雅黑" text-anchor="middle" font-size="13px" width="68px" fill="#323232" font-weight="400" align="middle" lineHeight="125%" anchor="middle" family="微软雅黑" size="13px" weight="400" font-style="" opacity="1" y="21.04166666666667" transform="rotate(0)"><tspan id="SvgjsTspan1025" dy="16.25" x="44"><tspan id="SvgjsTspan1026" style="">容器</tspan></tspan><tspan id="SvgjsTspan1027" dy="16.25" x="44"><tspan id="SvgjsTspan1028" style="">172.16.1.2</tspan></tspan></text></g></g><g id="SvgjsG1029" transform="translate(36.33333333333337,370.23195054795997)"><path id="SvgjsPath1030" d="M 0 4Q 0 0 4 0L 83.22222222222211 0Q 87.22222222222211 0 87.22222222222211 4L 87.22222222222211 76.33333333333334Q 87.22222222222211 80.33333333333334 83.22222222222211 80.33333333333334L 4 80.33333333333334Q 0 80.33333333333334 0 76.33333333333334Z" stroke="rgba(33,41,48,1)" stroke-width="1.5" fill-opacity="1" fill="#ffffff"></path><g id="SvgjsG1031"><text id="SvgjsText1032" font-family="微软雅黑" text-anchor="middle" font-size="13px" width="68px" fill="#323232" font-weight="400" align="middle" lineHeight="125%" anchor="middle" family="微软雅黑" size="13px" weight="400" font-style="" opacity="1" y="29.54166666666667" transform="rotate(0)"><tspan id="SvgjsTspan1033" dy="16.25" x="44"><tspan id="SvgjsTspan1034" style="">容器</tspan></tspan></text></g></g><g id="SvgjsG1035" transform="translate(176.66666666666674,200.45417277018237)"><path id="SvgjsPath1036" d="M 0 4Q 0 0 4 0L 86.22222222222223 0Q 90.22222222222223 0 90.22222222222223 4L 90.22222222222223 158.1111111111111Q 90.22222222222223 162.1111111111111 86.22222222222223 162.1111111111111L 4 162.1111111111111Q 0 162.1111111111111 0 158.1111111111111Z" stroke="rgba(33,41,48,1)" stroke-width="1.5" fill-opacity="1" fill="#ffffff"></path><g id="SvgjsG1037"><text id="SvgjsText1038" font-family="微软雅黑" text-anchor="middle" font-size="13px" width="71px" fill="#323232" font-weight="400" align="middle" lineHeight="125%" anchor="middle" family="微软雅黑" size="13px" weight="400" font-style="" opacity="1" y="61.93055555555554" transform="rotate(0)"><tspan id="SvgjsTspan1039" dy="16.25" x="45.5"><tspan id="SvgjsTspan1040" style="">172.16.1.1/2</tspan></tspan><tspan id="SvgjsTspan1041" dy="16.25" x="45.5"><tspan id="SvgjsTspan1042" style="">4</tspan></tspan></text></g></g><g id="SvgjsG1043" transform="translate(364.3333333333335,200.45417277018237)"><path id="SvgjsPath1044" d="M 0 4Q 0 0 4 0L 77 0Q 81 0 81 4L 81 158.1111111111111Q 81 162.1111111111111 77 162.1111111111111L 4 162.1111111111111Q 0 162.1111111111111 0 158.1111111111111Z" stroke="rgba(33,41,48,1)" stroke-width="1.5" fill-opacity="1" fill="#ffffff"></path><g id="SvgjsG1045"><text id="SvgjsText1046" font-family="微软雅黑" text-anchor="middle" font-size="13px" width="61px" fill="#323232" font-weight="400" align="middle" lineHeight="125%" anchor="middle" family="微软雅黑" size="13px" weight="400" font-style="" opacity="1" y="61.93055555555554" transform="rotate(0)"><tspan id="SvgjsTspan1047" dy="16.25" x="40.5"><tspan id="SvgjsTspan1048" style="">192.168.56</tspan></tspan><tspan id="SvgjsTspan1049" dy="16.25" x="40.5"><tspan id="SvgjsTspan1050" style="">.2/24</tspan></tspan></text></g></g><g id="SvgjsG1051" transform="translate(191.44444444444434,200.45417277018237)"><path id="SvgjsPath1052" d="M 0 0L 60.22222222222223 0L 60.22222222222223 40L 0 40Z" stroke="none" fill="none"></path><g id="SvgjsG1053"><text id="SvgjsText1054" font-family="微软雅黑" text-anchor="middle" font-size="16px" width="61px" fill="#323232" font-weight="400" align="middle" lineHeight="125%" anchor="middle" family="微软雅黑" size="16px" weight="400" font-style="" opacity="1" y="6" transform="rotate(0)"><tspan id="SvgjsTspan1055" dy="20" x="30.5"><tspan id="SvgjsTspan1056" style="">docker0</tspan></tspan></text></g></g><g id="SvgjsG1057" transform="translate(259.3333333333335,230.5097283257378)"><path id="SvgjsPath1058" d="M 0 4Q 0 0 4 0L 109 0Q 113 0 113 4L 113 102.27777777777783Q 113 106.27777777777783 109 106.27777777777783L 4 106.27777777777783Q 0 106.27777777777783 0 102.27777777777783Z" stroke="rgba(33,41,48,1)" stroke-width="1.5" fill-opacity="1" fill="#ffffff"></path><g id="SvgjsG1059"><text id="SvgjsText1060" font-family="微软雅黑" text-anchor="middle" font-size="16px" width="93px" fill="#323232" font-weight="400" align="middle" lineHeight="125%" anchor="middle" family="微软雅黑" size="16px" weight="400" font-style="" opacity="1" y="29.138888888888914" transform="rotate(0)"><tspan id="SvgjsTspan1061" dy="20" x="56.5"><tspan id="SvgjsTspan1062" style="">vxlan0</tspan></tspan><tspan id="SvgjsTspan1063" dy="20" x="56.5"><tspan id="SvgjsTspan1064" style="">vni 1</tspan></tspan></text></g></g><g id="SvgjsG1065" transform="translate(370.8333333333335,199.70417277018237)"><path id="SvgjsPath1066" d="M 0 0L 68 0L 68 40L 0 40Z" stroke="none" fill="none"></path><g id="SvgjsG1067"><text id="SvgjsText1068" font-family="微软雅黑" text-anchor="middle" font-size="15px" width="68px" fill="#323232" font-weight="400" align="middle" lineHeight="125%" anchor="middle" family="微软雅黑" size="15px" weight="400" font-style="" opacity="1" y="7.625" transform="rotate(0)"><tspan id="SvgjsTspan1069" dy="18.75" x="34"><tspan id="SvgjsTspan1070" style="">enp0s3</tspan></tspan></text></g></g><g id="SvgjsG1071"><path id="SvgjsPath1072" d="M124.30555555555543 152.62083943684888L150.1111111111111 152.62083943684888L150.1111111111111 281.5097283257378L175.91666666666674 281.5097283257378" stroke="#323232" stroke-width="1.5" fill="none"></path></g><g id="SvgjsG1073" transform="translate(758,35.00972832573791)"><path id="SvgjsPath1074" d="M 0 4Q 0 0 4 0L 352.33333333333337 0Q 356.33333333333337 0 356.33333333333337 4L 356.33333333333337 489Q 356.33333333333337 493 352.33333333333337 493L 4 493Q 0 493 0 489Z" stroke="rgba(33,41,48,1)" stroke-width="1.5" fill-opacity="1" fill="#ffffff"></path><g id="SvgjsG1075"><text id="SvgjsText1076" font-family="微软雅黑" text-anchor="middle" font-size="13px" width="337px" fill="#323232" font-weight="400" align="middle" lineHeight="125%" anchor="middle" family="微软雅黑" size="13px" weight="400" font-style="" opacity="1" y="235.875" transform="rotate(0)"></text></g></g><g id="SvgjsG1077" transform="translate(800.3318713450292,41.81126975155678)"><path id="SvgjsPath1078" d="M 0 0L 258.40058479532166 0L 258.40058479532166 40L 0 40Z" stroke="none" fill="none"></path><g id="SvgjsG1079"><text id="SvgjsText1080" font-family="微软雅黑" text-anchor="middle" font-size="20px" width="259px" fill="#323232" font-weight="400" align="middle" lineHeight="125%" anchor="middle" family="微软雅黑" size="20px" weight="400" font-style="" opacity="1" y="2" transform="rotate(0)"><tspan id="SvgjsTspan1081" dy="25" x="129.5"><tspan id="SvgjsTspan1082" style="">Host2</tspan></tspan></text></g></g><g id="SvgjsG1083" transform="translate(1009.3333333333335,112.45417277018225)"><path id="SvgjsPath1084" d="M 0 4Q 0 0 4 0L 83.22222222222211 0Q 87.22222222222211 0 87.22222222222211 4L 87.22222222222211 76.33333333333334Q 87.22222222222211 80.33333333333334 83.22222222222211 80.33333333333334L 4 80.33333333333334Q 0 80.33333333333334 0 76.33333333333334Z" stroke="rgba(33,41,48,1)" stroke-width="1.5" fill-opacity="1" fill="#ffffff"></path><g id="SvgjsG1085"><text id="SvgjsText1086" font-family="微软雅黑" text-anchor="middle" font-size="13px" width="68px" fill="#323232" font-weight="400" align="middle" lineHeight="125%" anchor="middle" family="微软雅黑" size="13px" weight="400" font-style="" opacity="1" y="21.04166666666667" transform="rotate(0)"><tspan id="SvgjsTspan1087" dy="16.25" x="44"><tspan id="SvgjsTspan1088" style="">容器</tspan></tspan><tspan id="SvgjsTspan1089" dy="16.25" x="44"><tspan id="SvgjsTspan1090" style="">172.16.1.3</tspan></tspan></text></g></g><g id="SvgjsG1091" transform="translate(1009.3333333333335,370.23195054795997)"><path id="SvgjsPath1092" d="M 0 4Q 0 0 4 0L 83.22222222222211 0Q 87.22222222222211 0 87.22222222222211 4L 87.22222222222211 76.33333333333334Q 87.22222222222211 80.33333333333334 83.22222222222211 80.33333333333334L 4 80.33333333333334Q 0 80.33333333333334 0 76.33333333333334Z" stroke="rgba(33,41,48,1)" stroke-width="1.5" fill-opacity="1" fill="#ffffff"></path><g id="SvgjsG1093"><text id="SvgjsText1094" font-family="微软雅黑" text-anchor="middle" font-size="13px" width="68px" fill="#323232" font-weight="400" align="middle" lineHeight="125%" anchor="middle" family="微软雅黑" size="13px" weight="400" font-style="" opacity="1" y="29.54166666666667" transform="rotate(0)"><tspan id="SvgjsTspan1095" dy="16.25" x="44"><tspan id="SvgjsTspan1096" style="">容器</tspan></tspan></text></g></g><g id="SvgjsG1097" transform="translate(874.421052631579,201.45417277018234)"><path id="SvgjsPath1098" d="M 0 4Q 0 0 4 0L 86.22222222222223 0Q 90.22222222222223 0 90.22222222222223 4L 90.22222222222223 158.1111111111111Q 90.22222222222223 162.1111111111111 86.22222222222223 162.1111111111111L 4 162.1111111111111Q 0 162.1111111111111 0 158.1111111111111Z" stroke="rgba(33,41,48,1)" stroke-width="1.5" fill-opacity="1" fill="#ffffff"></path><g id="SvgjsG1099"><text id="SvgjsText1100" font-family="微软雅黑" text-anchor="middle" font-size="13px" width="71px" fill="#323232" font-weight="400" align="middle" lineHeight="125%" anchor="middle" family="微软雅黑" size="13px" weight="400" font-style="" opacity="1" y="61.93055555555554" transform="rotate(0)"><tspan id="SvgjsTspan1101" dy="16.25" x="45.5"><tspan id="SvgjsTspan1102" style="">172.16.1.1/2</tspan></tspan><tspan id="SvgjsTspan1103" dy="16.25" x="45.5"><tspan id="SvgjsTspan1104" style="">4</tspan></tspan></text></g></g><g id="SvgjsG1105" transform="translate(698.3333333333335,201.45417277018234)"><path id="SvgjsPath1106" d="M 0 4Q 0 0 4 0L 77 0Q 81 0 81 4L 81 158.1111111111111Q 81 162.1111111111111 77 162.1111111111111L 4 162.1111111111111Q 0 162.1111111111111 0 158.1111111111111Z" stroke="rgba(33,41,48,1)" stroke-width="1.5" fill-opacity="1" fill="#ffffff"></path><g id="SvgjsG1107"><text id="SvgjsText1108" font-family="微软雅黑" text-anchor="middle" font-size="13px" width="61px" fill="#323232" font-weight="400" align="middle" lineHeight="125%" anchor="middle" family="微软雅黑" size="13px" weight="400" font-style="" opacity="1" y="61.93055555555554" transform="rotate(0)"><tspan id="SvgjsTspan1109" dy="16.25" x="40.5"><tspan id="SvgjsTspan1110" style="">192.168.56</tspan></tspan><tspan id="SvgjsTspan1111" dy="16.25" x="40.5"><tspan id="SvgjsTspan1112" style="">.3/24</tspan></tspan></text></g></g><g id="SvgjsG1113" transform="translate(889.4444444444443,201.45417277018234)"><path id="SvgjsPath1114" d="M 0 0L 60.22222222222223 0L 60.22222222222223 40L 0 40Z" stroke="none" fill="none"></path><g id="SvgjsG1115"><text id="SvgjsText1116" font-family="微软雅黑" text-anchor="middle" font-size="16px" width="61px" fill="#323232" font-weight="400" align="middle" lineHeight="125%" anchor="middle" family="微软雅黑" size="16px" weight="400" font-style="" opacity="1" y="6" transform="rotate(0)"><tspan id="SvgjsTspan1117" dy="20" x="30.5"><tspan id="SvgjsTspan1118" style="">docker0</tspan></tspan></text></g></g><g id="SvgjsG1119" transform="translate(771.3333333333335,230.5097283257379)"><path id="SvgjsPath1120" d="M 0 4Q 0 0 4 0L 109 0Q 113 0 113 4L 113 100Q 113 104 109 104L 4 104Q 0 104 0 100Z" stroke="rgba(33,41,48,1)" stroke-width="1.5" fill-opacity="1" fill="#ffffff"></path><g id="SvgjsG1121"><text id="SvgjsText1122" font-family="微软雅黑" text-anchor="middle" font-size="16px" width="93px" fill="#323232" font-weight="400" align="middle" lineHeight="125%" anchor="middle" family="微软雅黑" size="16px" weight="400" font-style="" opacity="1" y="28" transform="rotate(0)"><tspan id="SvgjsTspan1123" dy="20" x="56.5"><tspan id="SvgjsTspan1124" style="">vxlan0</tspan></tspan><tspan id="SvgjsTspan1125" dy="20" x="56.5"><tspan id="SvgjsTspan1126" style="">vni 1</tspan></tspan></text></g></g><g id="SvgjsG1127" transform="translate(707.3333333333335,199.45417277018234)"><path id="SvgjsPath1128" d="M 0 0L 68 0L 68 40L 0 40Z" stroke="none" fill="none"></path><g id="SvgjsG1129"><text id="SvgjsText1130" font-family="微软雅黑" text-anchor="middle" font-size="15px" width="68px" fill="#323232" font-weight="400" align="middle" lineHeight="125%" anchor="middle" family="微软雅黑" size="15px" weight="400" font-style="" opacity="1" y="7.625" transform="rotate(0)"><tspan id="SvgjsTspan1131" dy="18.75" x="34"><tspan id="SvgjsTspan1132" style="">enp0s3</tspan></tspan></text></g></g><g id="SvgjsG1133" transform="translate(524.3333333333335,106.78750610351562)"><path id="SvgjsPath1134" d="M 0 4Q 0 0 4 0L 92 0Q 96 0 96 4L 96 50Q 96 54 92 54L 4 54Q 0 54 0 50Z" stroke="rgba(33,41,48,1)" stroke-width="1.5" fill-opacity="1" fill="#ffffff"></path><g id="SvgjsG1135"><text id="SvgjsText1136" font-family="微软雅黑" text-anchor="middle" font-size="13px" width="76px" fill="#323232" font-weight="400" align="middle" lineHeight="125%" anchor="middle" family="微软雅黑" size="13px" weight="400" font-style="" opacity="1" y="16.375" transform="rotate(0)"><tspan id="SvgjsTspan1137" dy="16.25" x="48"><tspan id="SvgjsTspan1138" style="">Switch</tspan></tspan></text></g></g><g id="SvgjsG1139"><path id="SvgjsPath1140" d="M1008.5833333333335 152.62083943684894L986.9883040935674 152.62083943684894L986.9883040935674 282.5097283257379L965.3932748538011 282.5097283257379" stroke="#323232" stroke-width="1.5" fill="none"></path></g><g id="SvgjsG1141"><path id="SvgjsPath1142" d="M1008.5833333333335 410.39861721462665L986.9883040935674 410.39861721462665L986.9883040935674 282.5097283257379L965.3932748538011 282.5097283257379" stroke="#323232" stroke-width="1.5" fill="none"></path></g><g id="SvgjsG1143"><path id="SvgjsPath1144" d="M446.0824175088593 281.47267568781797C 515.4222539279857 281.50972832573785 572.3333333333335 230.87642669816785 572.2915998562681 161.53634408124648" stroke="#323232" stroke-width="1.5" fill="none"></path></g><g id="SvgjsG1145"><path id="SvgjsPath1146" d="M697.5842872740828 282.47191297011284C 628.2564619617135 282.5097283257379 572.3333333333335 230.8643774751356 572.3743393703201 161.53638426779247" stroke="#323232" stroke-width="1.5" fill="none"></path></g><g id="SvgjsG1147"><path id="SvgjsPath1148" d="M124.30555555555549 410.39861721462665L150.11111111111111 410.39861721462665L150.11111111111111 281.5097283257379L175.91666666666674 281.5097283257379" stroke="#323232" stroke-width="1.5" fill="none"></path></g></svg>